<mxfile host="app.diagrams.net" modified="2022-02-09T14:40:21.398Z" agent="5.0 (Windows NT 10.0; Win64; x64) AppleWebKit/537.36 (KHTML, like Gecko) Chrome/97.0.4692.99 Safari/537.36 OPR/83.0.4254.27" etag="cZhClLa1Hpf3aiEeIfUo" version="16.5.4" type="github">
  <diagram name="Page-1" id="929967ad-93f9-6ef4-fab6-5d389245f69c">
    <mxGraphModel dx="828" dy="452" grid="1" gridSize="10" guides="1" tooltips="1" connect="1" arrows="1" fold="1" page="1" pageScale="1.5" pageWidth="1169" pageHeight="826" background="none" math="0" shadow="0">
      <root>
        <mxCell id="0" style=";html=1;" />
        <mxCell id="1" style=";html=1;" parent="0" />
        <mxCell id="1672d66443f91eb5-1" value="&lt;p style=&quot;margin: 0px ; margin-top: 4px ; margin-left: 10px ; text-align: left&quot;&gt;&lt;b&gt;req&lt;/b&gt;&amp;nbsp;[package] HSUVRequirements[HSUV Specification]&lt;/p&gt;" style="html=1;strokeWidth=1;shape=mxgraph.sysml.package;html=1;overflow=fill;whiteSpace=wrap;fillColor=none;gradientColor=none;fontSize=12;align=center;labelX=327.64;" parent="1" vertex="1">
          <mxGeometry x="310" y="310" width="1120" height="650" as="geometry" />
        </mxCell>
        <mxCell id="1672d66443f91eb5-2" value="University" style="shape=folder;tabWidth=80;tabHeight=20;tabPosition=left;strokeWidth=1;html=1;whiteSpace=wrap;align=center;fontSize=12;fontStyle=1" parent="1" vertex="1">
          <mxGeometry x="437" y="355" width="160" height="90" as="geometry" />
        </mxCell>
        <mxCell id="1672d66443f91eb5-4" value="&lt;p&gt;Employes&lt;/p&gt;" style="shape=rect;html=1;overflow=fill;whiteSpace=wrap;align=center;fontStyle=1" parent="1" vertex="1">
          <mxGeometry x="397" y="535" width="160" height="80" as="geometry" />
        </mxCell>
        <mxCell id="1672d66443f91eb5-5" value="&lt;p&gt;Office&lt;br&gt;&lt;/p&gt;" style="shape=rect;html=1;overflow=fill;whiteSpace=wrap;align=center;fontStyle=1" parent="1" vertex="1">
          <mxGeometry x="637" y="535" width="160" height="70" as="geometry" />
        </mxCell>
        <mxCell id="1672d66443f91eb5-8" value="&lt;p&gt;&lt;span&gt;Classes&lt;/span&gt;&lt;br&gt;&lt;/p&gt;" style="shape=rect;html=1;overflow=fill;whiteSpace=wrap;align=center;fontStyle=1" parent="1" vertex="1">
          <mxGeometry x="890" y="330" width="160" height="70" as="geometry" />
        </mxCell>
        <mxCell id="1672d66443f91eb5-9" value="&lt;p&gt;&lt;br&gt;&lt;/p&gt;&lt;p&gt;Department&lt;/p&gt;" style="shape=rect;html=1;overflow=fill;whiteSpace=wrap;align=center;fontStyle=1" parent="1" vertex="1">
          <mxGeometry x="970" y="465" width="160" height="70" as="geometry" />
        </mxCell>
        <mxCell id="1672d66443f91eb5-10" value="&lt;p style=&quot;margin: 0px ; margin-top: 4px ; text-align: center&quot;&gt;&lt;br&gt;&lt;/p&gt;&lt;p style=&quot;margin: 0px ; margin-top: 4px ; text-align: center&quot;&gt;&lt;span&gt;&lt;br&gt;&lt;/span&gt;&lt;/p&gt;&lt;p style=&quot;margin: 0px ; margin-top: 4px ; text-align: center&quot;&gt;&lt;span&gt;Professor&lt;/span&gt;&lt;br&gt;&lt;/p&gt;" style="shape=rect;html=1;overflow=fill;whiteSpace=wrap;" parent="1" vertex="1">
          <mxGeometry x="415.5" y="680" width="123" height="85" as="geometry" />
        </mxCell>
        <mxCell id="1672d66443f91eb5-23" value="Title" style="text;strokeColor=none;fillColor=none;html=1;fontSize=24;fontStyle=1;verticalAlign=middle;align=center;" parent="1" vertex="1">
          <mxGeometry x="120" y="40" width="1510" height="40" as="geometry" />
        </mxCell>
        <mxCell id="MkChHUhnTBgNCrN2ZAyK-1" value="&lt;p style=&quot;margin: 0px ; margin-top: 4px ; text-align: center&quot;&gt;&lt;br&gt;&lt;/p&gt;&lt;p style=&quot;margin: 0px ; margin-top: 4px ; text-align: center&quot;&gt;&lt;br&gt;&lt;/p&gt;&lt;p style=&quot;margin: 0px ; margin-top: 4px ; text-align: center&quot;&gt;Officer&lt;/p&gt;" style="shape=rect;html=1;overflow=fill;whiteSpace=wrap;" vertex="1" parent="1">
          <mxGeometry x="557" y="680" width="123" height="85" as="geometry" />
        </mxCell>
        <mxCell id="MkChHUhnTBgNCrN2ZAyK-6" value="1" style="endArrow=open;html=1;endSize=12;startArrow=diamondThin;startSize=14;startFill=1;edgeStyle=orthogonalEdgeStyle;align=left;verticalAlign=bottom;rounded=0;exitX=0.5;exitY=1;exitDx=0;exitDy=0;" edge="1" parent="1" source="1672d66443f91eb5-4" target="MkChHUhnTBgNCrN2ZAyK-1">
          <mxGeometry x="-1" y="3" relative="1" as="geometry">
            <mxPoint x="490" y="620" as="sourcePoint" />
            <mxPoint x="640" y="610" as="targetPoint" />
          </mxGeometry>
        </mxCell>
        <mxCell id="MkChHUhnTBgNCrN2ZAyK-7" value="1" style="endArrow=open;html=1;endSize=12;startArrow=diamondThin;startSize=14;startFill=1;edgeStyle=orthogonalEdgeStyle;align=left;verticalAlign=bottom;rounded=0;" edge="1" parent="1" source="1672d66443f91eb5-2" target="1672d66443f91eb5-4">
          <mxGeometry x="-1" y="3" relative="1" as="geometry">
            <mxPoint x="517" y="445" as="sourcePoint" />
            <mxPoint x="517" y="605" as="targetPoint" />
          </mxGeometry>
        </mxCell>
        <mxCell id="MkChHUhnTBgNCrN2ZAyK-8" value="1" style="endArrow=open;html=1;endSize=12;startArrow=diamondThin;startSize=14;startFill=1;edgeStyle=orthogonalEdgeStyle;align=left;verticalAlign=bottom;rounded=0;exitX=0;exitY=0;exitDx=160;exitDy=37.5;exitPerimeter=0;" edge="1" parent="1" source="1672d66443f91eb5-2" target="1672d66443f91eb5-5">
          <mxGeometry x="-1" y="3" relative="1" as="geometry">
            <mxPoint x="600" y="400" as="sourcePoint" />
            <mxPoint x="757" y="400" as="targetPoint" />
          </mxGeometry>
        </mxCell>
        <mxCell id="MkChHUhnTBgNCrN2ZAyK-10" value="1" style="endArrow=open;html=1;endSize=12;startArrow=diamondThin;startSize=14;startFill=1;edgeStyle=orthogonalEdgeStyle;align=left;verticalAlign=bottom;rounded=0;exitX=1;exitY=0.722;exitDx=0;exitDy=0;exitPerimeter=0;entryX=0;entryY=0.25;entryDx=0;entryDy=0;" edge="1" parent="1" source="1672d66443f91eb5-2" target="1672d66443f91eb5-9">
          <mxGeometry x="-1" y="3" relative="1" as="geometry">
            <mxPoint x="590" y="410" as="sourcePoint" />
            <mxPoint x="940" y="393" as="targetPoint" />
            <Array as="points">
              <mxPoint x="769" y="420" />
              <mxPoint x="769" y="483" />
              <mxPoint x="940" y="483" />
            </Array>
          </mxGeometry>
        </mxCell>
        <mxCell id="MkChHUhnTBgNCrN2ZAyK-12" value="" style="endArrow=open;endFill=1;endSize=12;html=1;rounded=0;entryX=0.5;entryY=1;entryDx=0;entryDy=0;exitX=0.5;exitY=1;exitDx=0;exitDy=0;" edge="1" parent="1" source="MkChHUhnTBgNCrN2ZAyK-15" target="1672d66443f91eb5-10">
          <mxGeometry width="160" relative="1" as="geometry">
            <mxPoint x="757" y="605" as="sourcePoint" />
            <mxPoint x="590" y="770" as="targetPoint" />
            <Array as="points">
              <mxPoint x="1050" y="800" />
              <mxPoint x="757" y="800" />
              <mxPoint x="477" y="800" />
            </Array>
          </mxGeometry>
        </mxCell>
        <mxCell id="MkChHUhnTBgNCrN2ZAyK-14" value="1" style="endArrow=open;html=1;endSize=12;startArrow=diamondThin;startSize=14;startFill=1;edgeStyle=orthogonalEdgeStyle;align=left;verticalAlign=bottom;rounded=0;exitX=0;exitY=0;exitDx=120;exitDy=20;exitPerimeter=0;entryX=0;entryY=0.5;entryDx=0;entryDy=0;" edge="1" parent="1" source="1672d66443f91eb5-2" target="1672d66443f91eb5-8">
          <mxGeometry x="-1" y="3" relative="1" as="geometry">
            <mxPoint x="580" y="360" as="sourcePoint" />
            <mxPoint x="740" y="360" as="targetPoint" />
            <Array as="points">
              <mxPoint x="557" y="340" />
              <mxPoint x="820" y="340" />
              <mxPoint x="820" y="365" />
            </Array>
          </mxGeometry>
        </mxCell>
        <mxCell id="MkChHUhnTBgNCrN2ZAyK-15" value="&lt;p style=&quot;margin: 0px ; margin-top: 4px ; text-align: center&quot;&gt;&lt;br&gt;&lt;b&gt;Office&lt;/b&gt;&lt;/p&gt;&lt;p style=&quot;margin: 0px ; margin-top: 4px ; text-align: center&quot;&gt;&lt;b&gt;&lt;br&gt;&lt;/b&gt;&lt;/p&gt;" style="verticalAlign=top;align=left;overflow=fill;fontSize=12;fontFamily=Helvetica;html=1;" vertex="1" parent="1">
          <mxGeometry x="980" y="670" width="140" height="60" as="geometry" />
        </mxCell>
        <mxCell id="MkChHUhnTBgNCrN2ZAyK-16" value="1" style="endArrow=open;html=1;endSize=12;startArrow=diamondThin;startSize=14;startFill=1;edgeStyle=orthogonalEdgeStyle;align=left;verticalAlign=bottom;rounded=0;exitX=0.5;exitY=1;exitDx=0;exitDy=0;" edge="1" parent="1" source="1672d66443f91eb5-9" target="MkChHUhnTBgNCrN2ZAyK-15">
          <mxGeometry x="-1" y="3" relative="1" as="geometry">
            <mxPoint x="1030" y="560" as="sourcePoint" />
            <mxPoint x="1190" y="560" as="targetPoint" />
          </mxGeometry>
        </mxCell>
        <mxCell id="MkChHUhnTBgNCrN2ZAyK-17" value="" style="endArrow=open;endFill=1;endSize=12;html=1;rounded=0;exitX=0.5;exitY=1;exitDx=0;exitDy=0;entryX=1;entryY=0.5;entryDx=0;entryDy=0;" edge="1" parent="1" source="1672d66443f91eb5-5" target="MkChHUhnTBgNCrN2ZAyK-1">
          <mxGeometry width="160" relative="1" as="geometry">
            <mxPoint x="750" y="660" as="sourcePoint" />
            <mxPoint x="910" y="660" as="targetPoint" />
            <Array as="points">
              <mxPoint x="717" y="720" />
            </Array>
          </mxGeometry>
        </mxCell>
        <mxCell id="MkChHUhnTBgNCrN2ZAyK-18" value="1" style="endArrow=open;html=1;endSize=12;startArrow=diamondThin;startSize=14;startFill=1;edgeStyle=orthogonalEdgeStyle;align=left;verticalAlign=bottom;rounded=0;exitX=0;exitY=0.75;exitDx=0;exitDy=0;entryX=0;entryY=0.75;entryDx=0;entryDy=0;" edge="1" parent="1" source="1672d66443f91eb5-4" target="1672d66443f91eb5-10">
          <mxGeometry x="-1" y="3" relative="1" as="geometry">
            <mxPoint x="400" y="570" as="sourcePoint" />
            <mxPoint x="500" y="570" as="targetPoint" />
          </mxGeometry>
        </mxCell>
      </root>
    </mxGraphModel>
  </diagram>
</mxfile>
